<?xml version="1.0" standalone="no"?>
<!DOCTYPE svg PUBLIC "-//W3C//DTD SVG 20010904//EN"
 "http://www.w3.org/TR/2001/REC-SVG-20010904/DTD/svg10.dtd">
<svg version="1.0" xmlns="http://www.w3.org/2000/svg"
 width="4096.000000pt" height="4096.000000pt" viewBox="0 0 4096.000000 4096.000000"
 preserveAspectRatio="xMidYMid meet">
<metadata>
Created by potrace 1.14, written by Peter Selinger 2001-2017
</metadata>
<g transform="translate(0.000000,4096.000000) scale(0.100000,-0.100000)"
fill="#000000" stroke="none">
<path d="M31748 40703 c-2 -142 -5 -265 -8 -273 -11 -33 -70 -78 -112 -85 -41
-7 -197 -9 -327 -4 -96 3 -96 2 -95 -212 2 -220 -8 -267 -68 -307 l-42 -27
-203 -1 c-161 -1 -207 -4 -218 -15 -11 -11 -14 -57 -15 -207 -2 -319 -8 -324
-323 -326 -178 -1 -200 -3 -212 -19 -9 -13 -13 -63 -12 -185 1 -219 -5 -253
-49 -296 -19 -18 -49 -36 -66 -40 -24 -5 -527 -7 -911 -4 -21 0 -44 -5 -50
-11 -8 -8 -14 -83 -17 -226 -6 -238 -8 -247 -81 -290 -31 -18 -52 -20 -236
-20 -145 0 -206 -4 -215 -13 -8 -8 -12 -71 -13 -215 -2 -217 -7 -239 -57 -283
-38 -32 -68 -36 -274 -35 -144 1 -194 -2 -202 -11 -6 -8 -12 -96 -14 -224 l-3
-211 -28 -37 c-51 -66 -41 -64 -566 -64 -449 0 -475 -1 -484 -18 -6 -11 -11
-103 -12 -219 -1 -205 -5 -228 -44 -266 -16 -15 -40 -27 -71 -36 -8 -3 -101
-6 -207 -6 -156 -2 -195 -5 -207 -17 -13 -12 -15 -51 -16 -212 -1 -174 -4
-201 -21 -236 -37 -74 -47 -77 -284 -79 -172 -3 -212 -6 -225 -18 -12 -13 -15
-50 -16 -213 -1 -224 -7 -249 -71 -292 -36 -25 -40 -25 -240 -25 -174 -1 -205
-3 -219 -17 -14 -14 -17 -45 -18 -215 -1 -228 -10 -260 -81 -297 -37 -19 -58
-20 -511 -20 -358 -1 -476 -4 -485 -13 -9 -9 -13 -71 -14 -215 -2 -225 -6
-246 -67 -290 -32 -22 -40 -23 -242 -25 -159 -1 -212 -4 -222 -15 -10 -10 -14
-59 -14 -203 -2 -222 -3 -232 -38 -272 -48 -55 -60 -57 -280 -58 -181 0 -205
-2 -216 -17 -9 -13 -13 -62 -12 -175 2 -197 -7 -265 -42 -304 -38 -43 -85 -51
-293 -50 -155 0 -189 -2 -199 -14 -9 -11 -13 -73 -14 -218 -1 -224 -6 -244
-68 -289 l-33 -23 -483 -1 c-340 -1 -487 -5 -495 -13 -7 -7 -11 -79 -12 -210
-1 -217 -9 -256 -61 -294 -36 -27 -61 -30 -264 -29 -101 0 -192 -4 -201 -9
-16 -8 -18 -34 -22 -221 -6 -229 -6 -238 -18 -238 -4 0 -10 -9 -14 -19 -3 -11
-25 -29 -47 -40 -38 -19 -59 -20 -229 -20 -189 1 -228 -3 -231 -24 -1 -7 -2
-88 -3 -182 -3 -249 -8 -273 -80 -320 -27 -18 -48 -20 -237 -20 -151 0 -210
-3 -219 -12 -10 -10 -13 -352 -14 -1585 -1 -1260 -3 -1578 -14 -1599 -18 -36
-88 -79 -131 -80 -19 -1 -234 -1 -477 -1 -384 0 -443 -2 -455 -15 -9 -11 -12
-69 -13 -212 -1 -232 -9 -260 -85 -299 l-44 -22 -507 2 c-495 3 -508 4 -535
24 -67 50 -69 56 -72 277 -1 111 -4 209 -8 219 -8 26 -24 28 -219 26 -118 -1
-192 2 -216 10 -41 14 -83 55 -95 92 -4 14 -8 114 -9 224 -1 172 -3 200 -18
210 -11 9 -70 12 -198 11 -100 -1 -199 2 -218 7 -59 15 -95 55 -108 118 -1 8
-3 223 -3 476 0 418 -1 463 -16 475 -13 11 -61 14 -213 14 -179 0 -199 2 -236
21 -74 38 -80 60 -82 293 -1 167 -4 206 -16 219 -14 13 -110 15 -759 17 -409
1 -750 4 -759 6 -32 9 -69 40 -86 72 -14 27 -17 64 -18 234 -1 141 -6 207 -14
217 -10 12 -223 14 -1581 14 -1514 0 -1570 0 -1601 18 -37 22 -67 59 -75 94
-3 14 -6 110 -6 213 0 166 -2 191 -17 206 -15 15 -38 17 -185 16 -149 -1 -170
-3 -181 -19 -10 -13 -13 -68 -13 -209 0 -120 -5 -203 -12 -222 -15 -41 -47
-72 -84 -85 -36 -12 -421 -17 -482 -6 -48 8 -97 54 -109 101 -5 17 -9 117 -10
223 -1 132 -5 196 -13 204 -9 9 -325 12 -1299 13 -709 1 -1301 5 -1318 10 -33
9 -54 27 -81 69 -16 25 -18 53 -20 233 -1 172 -3 207 -17 220 -13 14 -42 16
-183 15 -121 -1 -171 -5 -181 -14 -9 -10 -13 -67 -14 -213 -2 -213 -7 -241
-52 -283 -35 -33 -58 -36 -307 -36 -208 -1 -228 1 -260 19 -68 41 -75 65 -78
297 -4 234 -5 238 -80 232 -104 -9 -2511 -3 -2543 6 -39 11 -83 51 -97 90 -5
14 -10 93 -10 175 -1 83 -1 171 -2 197 0 26 -6 53 -14 60 -11 12 -268 14
-1597 14 l-1584 -1 -3 -197 -2 -198 249 0 c137 0 261 -4 275 -10 39 -14 83
-67 91 -108 4 -20 7 -119 6 -219 -1 -179 -1 -183 21 -196 18 -11 63 -14 198
-13 229 3 268 -7 308 -79 14 -25 17 -66 19 -235 3 -166 6 -207 18 -219 12 -13
45 -15 184 -12 217 3 252 -2 296 -44 44 -43 48 -70 49 -291 1 -134 4 -185 14
-197 12 -14 41 -16 210 -15 171 1 202 -1 235 -16 41 -20 70 -56 80 -97 4 -15
7 -234 7 -486 0 -346 4 -464 13 -477 10 -14 40 -16 230 -19 l218 -2 35 -37
c19 -21 38 -48 41 -60 3 -13 7 -112 8 -221 1 -138 6 -202 14 -210 8 -8 72 -12
214 -13 212 0 238 -5 279 -50 34 -38 39 -77 40 -271 0 -133 4 -198 12 -209 11
-14 39 -16 211 -16 122 0 208 -4 224 -11 56 -23 90 -68 96 -127 2 -14 4 -227
4 -475 1 -264 5 -456 11 -465 8 -13 44 -15 217 -15 219 -1 236 -4 277 -49 34
-39 39 -70 41 -275 1 -185 3 -204 20 -213 11 -7 92 -10 205 -9 211 2 249 -6
291 -62 23 -31 24 -38 27 -242 3 -168 6 -213 18 -226 13 -15 40 -17 197 -16
205 1 241 -3 278 -36 50 -43 53 -58 55 -274 1 -171 3 -206 17 -221 14 -15 35
-17 204 -16 232 3 250 -2 310 -81 13 -17 14 -38 16 -517 2 -368 5 -470 15
-480 10 -10 63 -13 215 -13 185 0 205 -2 237 -20 68 -41 75 -65 78 -297 3
-168 7 -209 19 -219 10 -9 65 -12 196 -11 100 1 196 -1 214 -4 27 -5 119 -74
98 -74 -4 0 -2 -7 6 -16 9 -11 13 -68 14 -219 1 -150 4 -207 14 -219 11 -13
43 -15 204 -15 106 1 201 -1 212 -4 11 -3 23 -6 26 -6 3 -1 20 -13 37 -27 46
-39 54 -83 54 -288 -1 -139 2 -183 13 -200 14 -21 19 -22 200 -20 200 3 247
-4 283 -42 51 -53 51 -58 51 -559 -1 -444 0 -469 18 -479 11 -7 91 -11 214
-11 225 -1 250 -7 289 -78 21 -36 23 -53 24 -243 1 -132 6 -208 13 -215 7 -7
83 -11 219 -12 308 -3 306 -1 311 -297 2 -107 6 -205 8 -217 6 -25 35 -37 85
-34 85 6 298 4 332 -3 43 -8 95 -48 111 -85 6 -15 11 -109 12 -224 2 -168 5
-201 19 -215 14 -15 153 -16 1584 -17 1474 0 1569 -1 1594 -17 47 -31 67 -60
74 -105 4 -25 7 -246 8 -492 1 -354 4 -451 14 -464 11 -13 39 -15 191 -13 109
2 196 -2 223 -9 57 -14 94 -51 108 -107 17 -65 9 -1040 -7 -1046 -7 -2 -13 -9
-13 -15 0 -7 -17 -23 -37 -37 -36 -24 -41 -25 -241 -27 -165 -1 -209 -4 -223
-16 -15 -13 -17 -37 -17 -210 0 -178 -1 -199 -20 -239 -37 -76 -61 -82 -299
-83 -194 0 -205 -1 -216 -20 -7 -13 -11 -90 -11 -216 -1 -173 -3 -200 -20
-231 -20 -37 -59 -66 -99 -74 -12 -2 -220 -4 -462 -3 -242 0 -449 1 -459 0
-46 -1 -50 -18 -51 -234 -2 -208 -5 -226 -45 -270 -36 -38 -85 -46 -283 -43
-167 2 -189 0 -203 -16 -14 -15 -16 -75 -19 -490 -1 -260 -4 -480 -6 -488 -9
-30 -37 -61 -74 -80 -33 -17 -60 -19 -224 -19 -102 0 -191 -1 -198 -1 -6 0
-18 -7 -26 -15 -21 -21 -24 -332 -3 -361 13 -18 28 -19 218 -20 226 0 246 -5
290 -66 23 -32 23 -37 23 -279 0 -245 0 -245 -25 -282 -42 -62 -68 -68 -268
-69 -97 0 -181 1 -187 2 -27 6 -44 -2 -53 -27 -8 -19 -11 -421 -11 -1298 0
-698 -3 -1281 -5 -1295 -9 -38 -38 -73 -81 -94 -35 -18 -60 -19 -236 -18 -165
1 -199 -1 -210 -14 -18 -22 -19 -339 -1 -365 12 -17 30 -18 205 -18 210 0 230
-2 267 -29 55 -40 61 -71 62 -314 0 -233 -4 -262 -45 -307 -38 -40 -63 -44
-275 -45 -174 -1 -205 -3 -215 -17 -9 -12 -12 -335 -11 -1290 1 -1335 1 -1331
-42 -1377 -37 -40 -70 -46 -282 -46 -169 -1 -204 -4 -212 -16 -5 -8 -10 -92
-10 -186 0 -138 3 -174 14 -184 11 -8 70 -11 201 -10 205 1 248 -6 287 -47 38
-40 44 -83 42 -313 -1 -259 1 -240 -32 -276 -51 -59 -68 -62 -285 -61 -214 0
-226 -2 -228 -53 0 -14 0 -590 0 -1280 1 -832 -3 -1268 -9 -1292 -11 -39 -27
-59 -68 -86 -22 -14 -58 -17 -235 -18 -144 -1 -212 -5 -220 -13 -9 -9 -12
-400 -12 -1601 l-1 -1590 198 0 198 0 0 239 c-1 251 2 280 31 322 37 53 75 62
271 60 99 0 183 -3 188 -6 4 -3 18 4 31 14 23 18 23 22 24 217 2 223 8 254 66
295 33 23 39 24 242 25 163 1 211 4 222 15 10 11 14 64 17 219 3 230 10 255
78 294 32 19 51 20 237 19 199 -2 204 -1 217 20 11 17 15 65 15 207 0 102 2
192 4 200 16 62 62 105 119 114 23 4 233 6 467 5 234 -1 437 -1 450 -1 12 0
28 5 35 11 7 8 13 84 16 226 6 238 8 247 81 290 31 18 52 20 238 20 177 1 205
3 215 17 9 12 12 68 11 190 -1 192 7 252 39 287 41 46 72 51 285 52 141 0 203
4 209 12 6 7 12 107 14 224 3 232 5 237 72 287 27 20 40 21 499 23 260 1 482
5 495 8 12 3 22 11 23 18 0 6 1 100 3 207 2 225 11 257 82 294 35 19 57 21
235 21 151 0 200 3 212 14 15 12 17 39 17 208 0 211 7 246 57 289 36 31 66 35
274 34 155 -1 184 1 198 15 13 13 16 46 18 208 1 106 3 199 6 207 10 40 34 73
66 93 34 21 47 22 238 22 170 1 205 3 219 16 13 13 16 51 17 221 2 200 3 206
27 242 49 71 39 70 567 70 353 1 475 4 484 13 8 8 13 72 14 215 2 221 8 250
62 285 39 26 43 27 257 29 148 2 203 6 212 16 10 10 14 62 14 206 2 237 11
271 85 310 24 13 67 16 231 16 164 1 203 4 215 16 12 12 15 52 16 205 1 105 4
199 7 210 2 11 5 23 5 26 2 16 61 69 86 79 29 11 116 14 319 10 76 -2 101 1
113 13 13 12 16 53 19 219 1 111 4 209 5 217 4 26 65 79 102 89 24 7 207 10
499 10 441 -1 461 0 471 18 7 11 12 97 13 214 1 107 6 206 12 220 16 40 61 79
101 87 20 4 120 7 222 6 169 -1 186 1 197 17 7 12 12 86 13 207 1 103 6 202
10 220 10 34 56 83 86 92 10 2 107 6 216 7 166 2 202 5 217 19 15 14 17 36 17
198 0 100 3 195 6 210 5 26 67 121 67 103 0 -5 7 -2 17 5 12 11 63 14 217 15
111 1 206 2 213 3 6 0 15 11 19 24 4 12 8 724 8 1582 l1 1560 25 37 c49 73 59
74 602 72 381 -2 439 0 450 13 9 11 13 70 14 217 1 223 5 240 68 288 l31 23
522 0 c511 0 522 0 549 -21 38 -28 62 -64 68 -99 2 -16 5 -112 5 -212 1 -150
4 -184 16 -197 13 -13 45 -15 193 -14 240 2 276 -6 313 -72 19 -35 20 -43 23
-256 1 -152 5 -194 16 -206 12 -11 53 -13 201 -12 218 1 262 -8 297 -59 12
-19 25 -45 28 -58 2 -13 4 -231 4 -485 0 -426 1 -462 18 -477 14 -13 43 -15
182 -12 185 3 247 -5 289 -36 50 -37 54 -58 57 -278 2 -166 5 -207 18 -219 13
-13 81 -15 493 -16 539 -1 523 1 561 -77 18 -37 21 -61 22 -236 0 -131 5 -201
13 -213 11 -18 25 -19 183 -19 145 0 174 2 185 15 10 12 14 65 14 208 2 202 9
248 48 283 42 38 79 43 321 40 231 -2 232 -2 263 -27 60 -47 65 -71 67 -297 1
-159 4 -206 15 -212 7 -5 595 -8 1306 -8 1261 0 1294 -1 1327 -20 18 -10 43
-34 55 -53 25 -36 25 -37 25 -282 0 -113 3 -161 13 -174 11 -16 32 -18 181
-19 145 -1 170 1 184 15 15 15 17 41 18 189 0 220 6 262 40 294 15 14 40 31
56 37 30 11 436 16 491 5 30 -5 100 -71 104 -97 1 -7 3 -105 5 -217 2 -168 5
-206 18 -215 11 -8 377 -11 1301 -10 l1287 0 42 -21 c75 -38 82 -59 83 -284 2
-198 7 -241 28 -241 165 -6 339 -1 351 9 12 10 15 53 18 224 3 203 4 213 26
245 45 63 62 66 312 67 124 0 237 -3 251 -7 40 -11 86 -59 97 -100 6 -20 10
-121 11 -225 1 -176 2 -189 21 -205 11 -9 31 -15 43 -12 50 10 2523 4 2560 -7
41 -11 82 -49 95 -89 5 -14 10 -109 10 -210 1 -102 2 -190 2 -197 1 -40 -44
-39 1611 -38 l1584 0 3 198 2 197 -249 0 c-137 0 -260 4 -273 9 -36 14 -79 58
-89 94 -5 17 -10 119 -10 225 0 187 -1 193 -22 206 -17 10 -65 13 -197 11
-193 -2 -251 8 -287 49 -35 40 -42 87 -42 283 0 149 -3 190 -15 201 -12 12
-51 14 -203 14 -103 -1 -200 2 -215 5 -35 7 -84 51 -99 88 -7 19 -12 102 -13
226 -1 148 -4 200 -14 212 -12 14 -40 16 -205 15 -128 -1 -204 3 -228 11 -40
13 -80 58 -90 100 -4 14 -7 234 -8 488 -1 459 -1 462 -23 482 -11 11 -25 18
-29 15 -11 -6 -338 -5 -373 1 -50 10 -85 37 -103 79 -14 34 -17 77 -18 240 -2
175 -4 200 -19 211 -12 9 -62 12 -179 11 -200 -3 -263 6 -299 41 -44 42 -51
80 -50 284 0 128 -4 193 -12 204 -9 13 -42 16 -216 18 -229 2 -258 9 -295 70
-21 34 -20 -8 -25 967 0 54 -2 55 -227 55 -199 0 -210 1 -244 23 -65 40 -72
70 -74 295 -1 164 -4 200 -17 213 -13 13 -46 15 -206 14 -213 -1 -247 7 -292
63 -25 31 -25 34 -28 243 -3 179 -6 215 -19 226 -12 10 -66 13 -212 14 -222 0
-247 7 -291 71 -24 35 -25 41 -26 232 -1 198 -6 240 -27 242 -7 1 -102 2 -212
2 -189 2 -202 3 -236 25 -73 45 -72 40 -73 568 -1 363 -4 474 -14 486 -10 13
-43 15 -201 13 -201 -2 -246 5 -283 44 -41 44 -46 78 -48 281 0 153 -4 198
-15 209 -11 11 -57 14 -212 15 -109 1 -209 5 -223 9 -28 7 -88 73 -89 97 -1 8
-2 103 -4 211 -2 142 -6 201 -16 212 -10 13 -40 15 -189 13 -97 -1 -193 2
-212 6 -19 5 -41 10 -47 11 -26 6 -64 52 -74 91 -6 23 -11 121 -11 221 1 132
-3 185 -12 200 -13 20 -22 21 -209 19 -184 -3 -198 -1 -239 19 -25 13 -51 37
-63 57 -19 34 -20 54 -22 504 -2 258 -5 477 -8 487 -8 26 -22 27 -205 25 -189
-2 -244 5 -278 37 -51 47 -55 68 -56 277 -1 120 -5 202 -12 213 -10 17 -29 19
-221 20 -206 2 -210 2 -246 27 -61 42 -65 62 -66 307 -1 150 -4 184 -17 197
-13 13 -44 15 -197 14 -127 -2 -196 2 -229 11 -27 8 -48 16 -48 20 0 3 -11 19
-25 35 -29 33 -27 21 -30 270 -1 156 -4 191 -17 200 -11 8 -447 11 -1572 10
-1620 0 -1615 0 -1638 40 -5 8 -15 21 -23 29 -8 8 -17 27 -21 42 -4 15 -7 237
-7 492 0 398 -2 465 -15 476 -11 9 -72 12 -216 12 -193 1 -203 2 -239 24 -75
46 -72 24 -72 603 0 506 0 517 21 544 50 68 55 69 286 71 143 1 214 5 222 13
7 7 11 74 12 206 2 324 12 333 338 329 159 -2 179 -1 194 16 15 15 17 43 16
201 -1 230 9 272 75 307 45 25 14 23 580 22 353 -2 406 0 420 14 13 12 16 49
17 208 1 105 4 202 7 214 10 38 37 71 78 91 36 18 59 20 235 18 172 -1 197 1
211 16 13 14 15 81 16 496 l2 478 25 37 c40 59 70 66 280 66 102 0 190 0 197
0 6 1 18 8 27 16 21 21 22 333 1 361 -12 18 -29 19 -217 19 -218 1 -239 5
-282 56 -29 35 -33 70 -34 293 0 221 7 266 46 304 41 39 70 44 275 44 152 0
201 3 211 14 12 11 14 234 14 1301 0 1333 0 1322 40 1367 41 44 66 49 278 48
167 -1 205 2 215 14 18 22 20 332 2 362 -13 22 -17 22 -206 21 -209 0 -230 2
-267 29 -55 41 -62 73 -62 305 0 117 3 227 7 245 8 45 58 98 103 109 20 5 119
9 220 8 128 -1 188 2 199 11 15 10 17 121 18 1300 1 709 5 1302 10 1319 9 33
27 54 70 81 26 17 50 19 231 19 156 0 205 3 217 14 15 11 17 37 17 180 0 124
-3 172 -13 185 -13 17 -31 19 -210 18 -130 -1 -206 2 -224 10 -45 19 -80 57
-90 97 -6 20 -9 136 -9 258 l1 222 31 43 c43 61 66 67 292 65 158 -1 195 2
207 14 13 13 15 178 15 1304 0 1286 0 1289 21 1332 36 74 67 82 302 80 177 -1
198 1 210 17 10 14 13 331 12 1599 l0 1582 -197 3 -197 2 -3 -257z m-9941
-16058 c17 -3 47 -21 66 -40 44 -44 49 -75 49 -297 0 -117 3 -169 13 -183 13
-21 20 -21 466 -20 250 1 472 -3 494 -7 22 -5 51 -19 65 -31 46 -40 52 -72 54
-287 1 -184 3 -202 19 -212 11 -6 105 -11 221 -11 198 -2 203 -3 239 -27 20
-13 42 -36 49 -50 11 -22 18 -179 18 -397 0 -70 4 -71 222 -71 215 -1 210 0
255 -27 67 -40 67 -37 68 -564 l1 -473 22 -19 c13 -10 32 -16 45 -13 36 7 319
7 359 -1 43 -8 92 -49 107 -89 16 -42 15 -2655 -1 -2693 -14 -34 -54 -71 -88
-85 -25 -9 -336 -13 -377 -4 -13 3 -32 -3 -45 -13 l-22 -19 -2 -473 c0 -302
-5 -483 -11 -499 -12 -29 -60 -80 -77 -81 -6 0 -20 -3 -31 -6 -11 -2 -104 -5
-208 -5 -153 0 -190 -2 -202 -14 -11 -12 -15 -40 -15 -117 0 -273 -4 -312 -30
-350 -40 -59 -70 -66 -280 -65 -188 1 -229 -4 -231 -25 -1 -7 -3 -98 -4 -203
-2 -174 -4 -196 -24 -237 -40 -83 -27 -81 -567 -82 -365 0 -474 -3 -486 -13
-13 -10 -16 -44 -16 -192 0 -100 -3 -198 -7 -219 -8 -48 -51 -98 -96 -111 -46
-14 -2648 -14 -2683 -1 -31 12 -86 68 -87 90 0 9 -3 27 -5 41 -3 14 -6 107 -7
208 -1 130 -5 185 -14 190 -7 4 -214 7 -460 7 -246 -1 -468 2 -493 7 -35 6
-54 17 -82 48 -20 23 -37 49 -37 58 -1 9 -2 106 -4 215 -2 181 -4 199 -20 209
-11 6 -104 11 -222 12 -189 1 -206 3 -231 22 -41 30 -63 64 -68 104 -3 19 -5
115 -5 212 -1 145 -4 179 -16 192 -13 13 -43 15 -183 13 -92 -2 -189 1 -216 6
-52 9 -95 34 -96 55 0 6 -4 12 -9 12 -21 0 -25 86 -26 529 l-1 463 -22 18
c-13 11 -32 17 -45 14 -27 -6 -324 -6 -352 0 -11 3 -25 5 -31 5 -11 1 -91 71
-80 71 4 0 2 9 -4 20 -11 21 -15 2610 -4 2667 5 26 74 119 74 100 0 -4 12 -2
28 4 26 10 323 14 369 5 13 -3 32 3 45 13 l22 19 2 473 c1 486 2 500 41 544
37 43 76 49 280 48 158 -1 196 2 208 14 12 12 15 50 16 196 0 100 3 196 5 212
6 35 30 71 68 99 25 19 42 21 226 23 188 1 238 5 241 21 1 4 3 95 4 202 3 251
17 291 116 317 19 6 233 9 489 8 382 -2 458 1 472 12 14 13 17 40 17 206 0
106 4 206 10 224 16 55 73 97 141 105 47 6 2585 -1 2617 -7z"/>
</g>
</svg>
